<svg width="48" height="48" viewBox="0 0 48 48" fill="none" xmlns="http://www.w3.org/2000/svg">
<rect width="48" height="48" fill="white"/>
<path d="M15.3968 32.3444L14.7694 30.3604H8.98015L8.35245 32.3444H4.33203L10.1439 16.0077H13.6078L19.4894 32.3444H15.3968ZM11.8876 20.6747L9.88819 27.3965H13.8404L11.8876 20.6747Z" fill="#E91E63"/>
<path d="M19.9375 16.0077H23.75V32.3444H19.9375V16.0077Z" fill="#E91E63"/>
<path d="M24.778 29.0068C24.9492 28.2002 25.2516 27.4274 25.673 26.7195C26.0396 26.1214 26.4987 25.5856 27.0331 25.1325C27.5791 24.6778 28.158 24.2644 28.765 23.8959C29.2452 23.6156 29.6907 23.3471 30.1016 23.0906C30.4806 22.857 30.8419 22.5957 31.1826 22.3088C31.4769 22.0633 31.7249 21.7668 31.915 21.4335C32.0965 21.1012 32.1886 20.7272 32.1823 20.3483C32.1823 19.6948 32.0041 19.2242 31.6477 18.9363C31.2698 18.6414 30.801 18.4886 30.3226 18.5045C29.7782 18.4879 29.2488 18.6847 28.8463 19.053C28.4511 19.4187 28.2535 20.0295 28.2535 20.8852H24.5105C24.5038 20.1743 24.6342 19.4689 24.8943 18.8077C25.1438 18.1786 25.5288 17.6128 26.0216 17.1506C26.5465 16.6663 27.1632 16.2932 27.835 16.0537C28.6263 15.7762 29.4604 15.6418 30.2985 15.6568C31.0177 15.6534 31.7338 15.7517 32.4257 15.9486C33.0693 16.1279 33.6729 16.429 34.2041 16.8355C34.726 17.2453 35.1442 17.7731 35.4245 18.3758C35.7412 19.0749 35.8962 19.8369 35.8778 20.6047C35.8862 21.2542 35.7344 21.8957 35.4361 22.472C35.1504 23.0202 34.7862 23.5234 34.3551 23.9656C33.9342 24.3968 33.4709 24.7839 32.9721 25.1211C32.4756 25.4558 32.0261 25.7397 31.6236 25.9729C31.0652 26.3463 30.6041 26.6693 30.2403 26.9416C29.9282 27.1682 29.6365 27.422 29.3688 27.6999C29.1684 27.9063 29.0138 28.1529 28.9152 28.4236C28.8254 28.7024 28.7822 28.9941 28.7874 29.287H35.7618V32.3444H24.4642C24.4443 31.2236 24.5496 30.1041 24.778 29.0068Z" fill="#E91E63"/>
<path d="M36.4814 18.8764C37.1329 18.8898 37.7838 18.831 38.4224 18.7013C38.849 18.62 39.2509 18.4403 39.5965 18.1763C39.8738 17.9453 40.0762 17.6365 40.1776 17.2894C40.2938 16.8717 40.3486 16.4393 40.3402 16.0057H43.6659V32.3442H39.8303V21.5379H36.4814V18.8764Z" fill="#E91E63"/>
</svg>
