<svg width="48" height="48" viewBox="0 0 48 48" fill="none" xmlns="http://www.w3.org/2000/svg">
<path d="M19.1906 18.7317H9.59532V9.6H17.3184C18.3481 9.6 19.1906 8.75707 19.1906 7.72683V0H28.3179V9.6C28.3179 14.6576 24.2223 18.7317 19.1906 18.7317ZM9.59532 19.6683H0V28.8H7.72306C8.7528 28.8 9.59532 29.6429 9.59532 30.6732V38.4H18.7226V28.8C18.7226 23.7424 14.627 19.6683 9.59532 19.6683ZM40.2769 19.2C39.2472 19.2 38.4047 18.3571 38.4047 17.3268V9.6H29.2774V19.2C29.2774 24.2576 33.373 28.3317 38.4047 28.3317H48V19.2H40.2769ZM19.6587 38.4V48H28.786V40.2732C28.786 39.2429 29.6285 38.4 30.6582 38.4H38.3813V29.2683H28.786C23.7309 29.2683 19.6587 33.3659 19.6587 38.4Z" fill="#F0529C"/>
</svg>
