<svg width="48" height="48" viewBox="0 0 48 48" fill="none" xmlns="http://www.w3.org/2000/svg">
<path d="M31.4127 8.5H33.5651C36.5905 8.67185 39.8032 9.23514 42.2127 11.221C44.1365 12.7835 44.9524 15.4536 44.4794 17.8595C44.1175 19.6544 43.2921 21.3093 42.4032 22.8909C40.6 26.0224 38.3841 28.8803 36.2762 31.8049C35.8984 32.2886 35.6032 32.8806 35.6413 33.5107C35.6762 34.0103 36.0571 34.4145 36.5048 34.5927C37.3714 34.946 38.3302 34.8759 39.2413 34.825C42.1206 34.5227 44.8952 33.6475 47.6413 32.7692C47.8508 32.6387 47.9206 32.8519 48 33.0047C45.0825 34.9555 41.9429 36.5817 38.6413 37.7783C36.8159 38.3925 34.8857 38.9749 32.9397 38.7458C31.9175 38.6439 30.8921 38.0329 30.5714 37.0113C30.1746 35.6811 30.3206 34.2076 30.8952 32.9506C31.7683 30.987 33.1238 29.3003 34.4095 27.5977C36.5397 24.7972 38.7397 22.0126 40.4127 18.9002C40.9651 17.7959 41.5556 16.4561 41.0063 15.2372C40.4889 14.1138 39.3651 13.4519 38.2889 12.9522C36.3778 12.0961 34.3397 11.5806 32.3302 11.0078C32.0275 11.2072 31.7259 11.4087 31.4254 11.6124C32.1238 12.1471 32.8222 12.6817 33.5143 13.2259C30.8698 13.7033 28.2349 14.2379 25.6317 14.903C21.6667 15.8896 17.7968 17.2103 13.9619 18.6106C14.3365 19.3584 14.7079 20.1095 15.0635 20.8669C14.1968 21.828 13.3365 22.7986 12.4698 23.7597C14.5524 24.3835 16.7968 24.4694 18.9206 23.9984C20.7365 23.5911 22.4444 22.7191 23.8317 21.4747C23.454 21.0037 22.9778 20.625 22.4635 20.3132C24.1492 20.3482 25.6825 21.8216 25.6857 23.5306C25.3556 23.5327 25.0275 23.5348 24.7016 23.537C24.6317 23.1646 24.5333 22.805 24.4032 22.4518C22.4889 24.1862 20.0159 25.2714 17.454 25.5514C15.1968 25.8124 12.8889 25.5005 10.7651 24.7049C10.9079 26.0224 11.0508 27.3336 11.1841 28.6511C9.97778 29.1221 8.85714 29.8032 7.85397 30.6242C7.05714 31.3212 6.26667 32.1231 5.9619 33.167C5.66984 34.0867 6.14603 35.1305 6.94921 35.6238C7.92381 36.2285 9.06032 36.5085 10.1841 36.6708C11.6667 36.865 13.1651 36.849 14.654 36.744C17.5778 36.5276 20.4667 35.9771 23.3111 35.2865C23.5936 35.1719 23.727 35.6397 23.4381 35.7129C21.1683 36.884 18.7936 37.8706 16.3175 38.5071C13.9905 39.1086 11.5937 39.4173 9.19365 39.5C6.74603 39.4236 4.14603 38.9494 2.20635 37.3423C0.765079 36.1712 0.00634921 34.3126 0 32.47V32.3714C0.047619 30.4237 0.704762 28.5397 1.65079 26.853C2.89524 24.4726 4.42857 22.2385 6.24127 20.2559C9.3746 16.7966 13.3048 14.1202 17.5302 12.1821C21.9079 10.1931 26.5936 8.76414 31.4127 8.5Z" fill="#FF5A00"/>
</svg>
