<svg width="48" height="48" viewBox="0 0 48 48" fill="none" xmlns="http://www.w3.org/2000/svg">
<rect width="48" height="48" fill="white"/>
<path d="M12.5557 5.45778C13.9839 5.30151 15.4355 5.15973 16.9107 5.03244C16.7979 6.24987 16.683 7.50585 16.5664 8.80039C15.0261 8.93448 13.5172 9.08219 12.0398 9.2435C12.2128 7.94619 12.3847 6.68427 12.5557 5.45778Z" fill="black"/>
<path d="M27.7167 4C29.9845 4.17694 32.2015 4.38778 34.3674 4.63253C34.6452 6.50604 34.9246 8.46059 35.2056 10.4962C32.9344 10.2411 30.5827 10.017 28.1507 9.82395C28.0021 7.79013 27.8574 5.84881 27.7167 4Z" fill="black"/>
<path d="M4.81438 14.117C5.71382 13.9967 6.63245 13.876 7.57027 13.7548C7.45462 14.829 7.34655 15.9194 7.24605 17.0259C6.31024 17.1175 5.3949 17.2079 4.5 17.2973C4.59722 16.2241 4.70201 15.164 4.81438 14.117Z" fill="black"/>
<path d="M19.7112 11.4671C21.8815 11.4257 24.0518 11.4257 26.2221 11.4671C26.3037 13.4003 26.3851 15.4159 26.4661 17.5137C24.1332 17.4716 21.8003 17.4716 19.4673 17.5137C19.5483 15.4159 19.6297 13.4003 19.7112 11.4671Z" fill="black"/>
<path d="M35.8531 11.1355C38.2689 11.471 40.5755 11.8048 42.7728 12.137C43.0612 14.6581 43.3035 17.2459 43.5 19.9005C41.3398 19.7563 39.051 19.6069 36.6334 19.4521C36.4147 16.5659 36.1546 13.7936 35.8531 11.1355Z" fill="black"/>
<path d="M10.988 21.4216C12.523 21.3702 14.1091 21.3186 15.7464 21.267C15.7196 23.089 15.7196 24.9112 15.7464 26.7332C14.1091 26.6816 12.523 26.6301 10.988 26.5786C10.9622 24.8597 10.9622 23.1406 10.988 21.4216Z" fill="black"/>
<path d="M28.729 19.748C31.3017 19.8615 33.7538 19.9769 36.0855 20.0943C36.1453 22.6983 36.1453 25.3023 36.0855 27.9063C33.7538 28.0237 31.3017 28.1391 28.729 28.2526C28.7885 25.4177 28.7885 22.5829 28.729 19.748Z" fill="black"/>
<path d="M4.5 30.7028C5.3949 30.7923 6.31024 30.8828 7.24605 30.9742C7.34655 32.0807 7.45462 33.1712 7.57027 34.2454C6.63245 34.1241 5.71382 34.0034 4.81438 33.8832C4.70201 32.8361 4.59722 31.776 4.5 30.7028Z" fill="black"/>
<path d="M19.4673 30.4871C21.8003 30.5292 24.1332 30.5292 26.4661 30.4871C26.3851 32.5849 26.3037 34.6005 26.2221 36.5338C24.0518 36.575 21.8815 36.575 19.7112 36.5338C19.6297 34.6005 19.5483 32.5849 19.4673 30.4871Z" fill="black"/>
<path d="M36.6334 28.5481C39.051 28.3934 41.3398 28.2439 43.5 28.0997C43.3035 30.7543 43.0612 33.3422 42.7728 35.8633C40.5755 36.1954 38.2689 36.5293 35.8531 36.8647C36.1546 34.2065 36.4147 31.4343 36.6334 28.5481Z" fill="black"/>
<path d="M12.0398 38.7568C13.5172 38.9181 15.0261 39.0658 16.5664 39.1999C16.683 40.4945 16.7979 41.7504 16.9107 42.9679C15.4355 42.8405 13.9839 42.6988 12.5557 42.5425C12.3847 41.316 12.2128 40.0542 12.0398 38.7568Z" fill="black"/>
<path d="M28.1507 38.1761C30.5827 37.983 32.9344 37.7589 35.2056 37.5038C34.9246 39.5393 34.6452 41.494 34.3674 43.3675C32.2015 43.6122 29.9845 43.8231 27.7167 44C27.8574 42.1512 28.0021 40.2099 28.1507 38.1761Z" fill="black"/>
</svg>
