<svg width="56" height="56" viewBox="0 0 56 56" fill="none" xmlns="http://www.w3.org/2000/svg">
<rect width="56" height="56" fill="white"/>
<defs>
  <clipPath clipPathUnits="userSpaceOnUse" id="clipPath2">
    <path d="M 0,74.83 H 127.73 V 0 H 0 Z" transform="translate(-31.070001,-42.240001)"/>
  </clipPath>
  <clipPath clipPathUnits="userSpaceOnUse" id="clipPath4">
    <path d="M 0,74.83 H 127.73 V 0 H 0 Z" transform="translate(-96.660002,-32.590001)"/>
  </clipPath>
  <clipPath clipPathUnits="userSpaceOnUse" id="clipPath6">
    <path d="M 0,74.83 H 127.73 V 0 H 0 Z" transform="translate(-42.950001,-43.760001)"/>
  </clipPath>
  <clipPath clipPathUnits="userSpaceOnUse" id="clipPath8">
    <path d="M 0,74.83 H 127.73 V 0 H 0 Z" transform="translate(-84.780002,-43.760001)"/>
  </clipPath>
  <clipPath clipPathUnits="userSpaceOnUse" id="clipPath10">
    <path d="M 0,74.83 H 127.73 V 0 H 0 Z" transform="translate(-72.650002,-47.280001)"/>
  </clipPath>
</defs>
<g transform="translate(0,11.6) scale(0.3289)">
  <path d="m 0,0 v 19.57 c 0,1.22 0.99,2.21 2.21,2.21 h 61.17 c 1.22,0 2.21,-0.99 2.21,-2.21 V 0 H 76.4 v 19.57 c 0,7.18 -5.84,13.02 -13.02,13.02 H 2.21 c -7.18,0 -13.02,-5.84 -13.02,-13.02 l 0,-19.57 z"
     style="fill:#030303;fill-opacity:1;fill-rule:nonzero;stroke:none"
     transform="matrix(1.3333333,0,0,-1.3333333,41.426667,43.453333)"
     clip-path="url(#clipPath2)"/>
  <path d="m 0,0 v -19.57 c 0,-1.22 -0.99,-2.21 -2.21,-2.21 h -61.17 c -1.22,0 -2.21,0.99 -2.21,2.21 V 0 H -76.4 v -19.57 c 0,-7.18 5.84,-13.02 13.02,-13.02 h 61.17 c 7.18,0 13.02,5.84 13.02,13.02 l 0,19.57 z"
     style="fill:#030303;fill-opacity:1;fill-rule:nonzero;stroke:none"
     transform="matrix(1.3333333,0,0,-1.3333333,128.88,56.32)"
     clip-path="url(#clipPath4)"/>
  <path d="M 0,0 -42.95,15.71 V 3.46 l 26.91,-9.84 -26.91,-9.84 V -28.47 L 0,-12.77 Z"
     style="fill:#489034;fill-opacity:1;fill-rule:nonzero;stroke:none"
     transform="matrix(1.3333333,0,0,-1.3333333,57.266667,41.426667)"
     clip-path="url(#clipPath6)"/>
  <path d="M 0,0 42.95,15.71 V 3.46 L 16.04,-6.38 42.95,-16.22 V -28.47 L 0,-12.77 Z"
     style="fill:#489034;fill-opacity:1;fill-rule:nonzero;stroke:none"
     transform="matrix(1.3333333,0,0,-1.3333333,113.04,41.426667)"
     clip-path="url(#clipPath8)"/>
  <path d="m 0,0 h -11.71 l -5.86,-19.31 h 11.71 z"
     style="fill:#489034;fill-opacity:1;fill-rule:nonzero;stroke:none"
     transform="matrix(1.3333333,0,0,-1.3333333,96.866667,36.733333)"
     clip-path="url(#clipPath10)"/>
</g>
</svg>
