<svg xmlns="http://www.w3.org/2000/svg" width="48" height="48" viewBox="0 0 48 48" fill="none">
<rect width="48" height="48" fill="#F5F5F5"/>
<path d="M24.5197 19.3944L24.5083 19.4009L28.5923 26.4024C29.14 27.2326 29.4596 28.221 29.4596 29.2836C29.4596 30.2897 29.1743 31.2308 28.6784 32.0332L37 29.3784L23.9822 8L20.8473 13.1621L24.5197 19.3944Z" fill="black"/>
<path d="M17.5215 40L24.0593 34.5956C24.0539 34.5956 24.0478 34.5956 24.0424 34.5956C21.0507 34.5956 18.6259 32.2175 18.6259 29.2841C18.6259 28.2246 18.9436 27.2385 19.4889 26.4094L23.3521 19.7742L20.1413 14.3253L11 29.3789L17.5107 40H17.5215Z" fill="black"/>
<path d="M26.8229 33.843L26.8217 33.8435L19.3878 40H30.4195L36.0106 30.9754L26.8229 33.843Z" fill="black"/>
</svg>