<svg width="48" height="48" viewBox="0 0 48 48" fill="none" xmlns="http://www.w3.org/2000/svg">
<rect width="48" height="48" fill="white"/>
<path fill-rule="evenodd" clip-rule="evenodd" d="M4.84549 38C4.71529 38.0001 4.58683 37.9702 4.47014 37.9127C4.35344 37.8553 4.25168 37.7717 4.17279 37.6687C4.09389 37.5656 4.04 37.4458 4.01532 37.3186C3.99064 37.1913 3.99584 37.0602 4.03051 36.9353L11.1504 11.2364C11.221 10.9809 11.3513 10.7457 11.5307 10.5499C11.7101 10.3542 11.9335 10.2034 12.1826 10.1099C12.4318 10.0164 12.6996 9.98293 12.9642 10.0121C13.2289 10.0413 13.4828 10.1324 13.7054 10.2778L23.0752 16.3924C23.3501 16.5716 23.6716 16.667 24.0002 16.667C24.3288 16.667 24.6503 16.5716 24.9252 16.3924L34.3334 10.2745C34.5561 10.1294 34.8101 10.0388 35.0747 10.01C35.3394 9.98116 35.6071 10.015 35.856 10.1088C36.105 10.2026 36.3281 10.3537 36.5073 10.5496C36.6864 10.7456 36.8164 10.9809 36.8867 11.2364L43.9699 36.937C44.0043 37.0618 44.0093 37.1928 43.9844 37.3199C43.9595 37.4469 43.9054 37.5665 43.8263 37.6693C43.7472 37.7721 43.6453 37.8553 43.5285 37.9124C43.4118 37.9694 43.2833 37.9989 43.1532 37.9983H34.1167C35.7619 36.1016 36.6669 33.6795 36.6667 31.1739V30.8804C36.6665 28.4288 35.7703 26.061 34.145 24.2185L32.9834 18.4223C32.9598 18.3013 32.9056 18.1882 32.8259 18.0938C32.7463 17.9993 32.6437 17.9266 32.528 17.8825C32.4123 17.8384 32.2873 17.8243 32.1646 17.8416C32.0419 17.8588 31.9256 17.9069 31.8267 17.9812L27.4501 21.2466C27.2963 21.3615 27.1179 21.4393 26.9288 21.4741C26.7397 21.509 26.5451 21.4998 26.3602 21.4473C24.8172 21.0086 23.1816 21.0086 21.6386 21.4473C21.4539 21.4998 21.2596 21.5089 21.0707 21.4741C20.8819 21.4393 20.7038 21.3614 20.5503 21.2466L16.1703 17.9779C16.0716 17.9045 15.9557 17.8574 15.8336 17.8409C15.7115 17.8245 15.5872 17.8393 15.4724 17.884C15.3577 17.9286 15.2563 18.0016 15.1777 18.0961C15.0992 18.1906 15.0462 18.3035 15.0237 18.424L13.8987 24.4806C12.2545 26.1436 11.3333 28.3833 11.3337 30.7162V31.2685C11.3337 33.713 12.212 36.0779 13.8137 37.9353L13.867 37.9983L4.84549 38Z" fill="#29E154"/>
<path d="M19.3553 32.9584H21.8886V27.0776H19.7386L19.3553 32.9584ZM28.6435 32.9584H26.1102V27.0776H28.2601L28.6435 32.9584Z" fill="black"/>
</svg>
