<svg width="48" height="48" viewBox="0 0 48 48" fill="none" xmlns="http://www.w3.org/2000/svg">
<path d="M18.7103 12.1286C20.3263 11.4043 22.1162 11 24.001 11C25.8857 11 27.6756 11.4043 29.2916 12.1286H18.7103Z" fill="#F01438"/>
<path d="M13.6456 16.1647H23.3146C23.3311 16.1863 23.3467 16.2087 23.3623 16.2309C23.3748 16.2488 23.3875 16.2669 23.4004 16.2846L23.4009 16.2787L23.4013 16.2719H24.598C24.5342 16.3582 24.471 16.4464 24.4083 16.5352H34.6361C34.6258 16.5205 34.6156 16.5056 34.6054 16.4908C34.5903 16.4688 34.5748 16.4463 34.5593 16.4247H45.5689C45.2093 15.923 44.8151 15.4479 44.3894 15.0031H33.3789C33.358 14.9815 33.3367 14.9602 33.3154 14.9389C33.2999 14.9236 33.2844 14.9083 33.2692 14.8927H25.7803C25.754 14.9195 25.7276 14.9461 25.7011 14.9728C25.6412 15.0331 25.581 15.0935 25.5232 15.1559H22.4758L22.4703 15.1556L22.4658 15.1553C22.4794 15.1699 22.4931 15.1845 22.5069 15.199C22.527 15.2203 22.5471 15.2415 22.5668 15.2632H14.3938C14.373 15.2863 14.3518 15.3091 14.3308 15.3319C14.2924 15.3736 14.2537 15.4154 14.2165 15.4581H3.19276C3.04746 15.6251 2.90602 15.7954 2.76923 15.9697H13.793C13.7593 16.0127 13.7266 16.0565 13.6938 16.1003C13.6777 16.1218 13.6618 16.1433 13.6456 16.1647Z" fill="#F01438"/>
<path d="M11.5575 20.3076H22.587C22.5426 20.4579 22.5031 20.6102 22.464 20.7626H25.5671C25.5638 20.7498 25.5608 20.7369 25.5576 20.7241L25.5516 20.699L25.5464 20.6781H36.5635L36.5519 20.6332L36.5451 20.6068C36.5417 20.5937 36.5383 20.5807 36.5348 20.5677H47.5432C47.4108 20.0818 47.2512 19.6074 47.0658 19.146H36.0568C36.0481 19.1245 36.0391 19.1031 36.0301 19.0818C36.0237 19.0664 36.0172 19.051 36.0108 19.0355H24.994C24.9877 19.0203 24.981 19.0052 24.9744 18.9901C24.9686 18.9772 24.9629 18.9641 24.9575 18.9511H23.074C23.0106 19.1017 22.9474 19.2525 22.8895 19.406H11.8608C11.8523 19.4285 11.8438 19.4508 11.8353 19.4732C11.819 19.5154 11.8026 19.5583 11.7872 19.6011H0.763418C0.702744 19.77 0.645144 19.9404 0.591346 20.1127H11.6151C11.6016 20.1558 11.5891 20.1993 11.5764 20.2429L11.5575 20.3076Z" fill="#F01438"/>
<path d="M40.6496 12.2814C38.9485 11.4602 37.041 11 35.0263 11C33.0547 11 31.1862 11.4416 29.5129 12.2301C29.4931 12.2394 29.4735 12.2492 29.454 12.259C29.4389 12.2666 29.4239 12.2741 29.4087 12.2814H40.6496Z" fill="#F01438"/>
<path d="M15.8145 11.3143C16.4022 11.4461 16.9746 11.6176 17.5292 11.8262L17.5275 11.8268H8.41226C8.96599 11.6184 9.5376 11.4468 10.1242 11.3152H15.8155L15.8145 11.3143Z" fill="#F01438"/>
<path d="M11.1257 22.3794H22.1539C22.1352 22.53 22.1214 22.6821 22.108 22.8343H25.9195C25.9184 22.8216 25.9175 22.8087 25.9166 22.7959C25.9155 22.7804 25.9143 22.7651 25.913 22.7499H36.9305L36.9289 22.7312L36.9266 22.7043C36.9247 22.6826 36.9229 22.6609 36.9207 22.6394H47.9291C47.879 22.1571 47.802 21.6829 47.7008 21.2179H36.6933L36.6866 21.1879L36.6783 21.1534C36.6747 21.1382 36.6711 21.1226 36.6675 21.1074H25.6501C25.6466 21.0919 25.6427 21.0767 25.6388 21.0615C25.6356 21.0487 25.6323 21.0357 25.6293 21.0228H22.399C22.3636 21.1738 22.3286 21.3249 22.2986 21.4778H11.2693L11.2631 21.5091L11.2557 21.5458C11.2472 21.5879 11.2387 21.6304 11.231 21.6728H0.20721C0.176675 21.8421 0.150105 22.0129 0.126202 22.1844H11.1499C11.1439 22.228 11.1387 22.2718 11.1334 22.3157L11.1257 22.3794Z" fill="#F01438"/>
<path d="M21.3625 14.0929H15.6041C15.628 14.0726 15.6517 14.0522 15.6754 14.0318C15.7278 13.9867 15.7802 13.9415 15.8338 13.898H4.8101C5.02843 13.7205 5.25227 13.5496 5.48199 13.3864H16.5058C16.5774 13.3356 16.6504 13.287 16.7235 13.2383L16.7937 13.1914H20.1727C20.1389 13.1687 20.1044 13.1469 20.0701 13.125C20.0485 13.1113 20.0269 13.0976 20.0055 13.0836L20.008 13.0837L20.0115 13.0839L20.0181 13.0842H27.9856C28.125 12.9936 28.2667 12.9063 28.4095 12.8209H30.6403L30.6741 12.841C30.7243 12.8709 30.7746 12.9008 30.8242 12.9314H41.8346C42.5077 13.3479 43.1403 13.824 43.7242 14.3529H32.7133C32.7371 14.3745 32.7604 14.3966 32.7836 14.4187C32.7993 14.4336 32.8152 14.4487 32.8311 14.4634H26.224C26.2508 14.4385 26.2776 14.4134 26.3043 14.3883C26.3719 14.3248 26.4396 14.2613 26.5095 14.2002H21.4951C21.493 14.2002 21.4894 14.2005 21.4894 14.2005L21.4851 14.2007C21.4691 14.1868 21.4532 14.1727 21.4374 14.1586C21.4126 14.1366 21.3877 14.1144 21.3625 14.0929Z" fill="#F01438"/>
<path d="M12.3696 18.2355H23.3985C23.3244 18.3852 23.2556 18.5377 23.1872 18.6905H24.8453L24.8364 18.6702L24.829 18.6526C24.8224 18.6371 24.8158 18.6214 24.8088 18.6061H35.826C35.8192 18.591 35.8125 18.5758 35.8058 18.5607C35.7961 18.5389 35.7865 18.5171 35.7765 18.4955H46.784C46.5545 18.0042 46.2954 17.5295 46.0087 17.074H34.9995C34.986 17.0524 34.9719 17.0312 34.9579 17.0098C34.9477 16.9944 34.9376 16.979 34.9275 16.9635H24.1203C24.078 17.0287 24.0362 17.094 23.9956 17.1595C23.9598 17.2173 23.9243 17.2755 23.8894 17.334H12.8606C12.8472 17.3565 12.8337 17.3788 12.8201 17.4012C12.7945 17.4435 12.7687 17.486 12.744 17.529H1.72024C1.62378 17.6971 1.53139 17.8678 1.44231 18.0405H12.4661C12.4435 18.0845 12.4218 18.1289 12.4001 18.1734L12.3696 18.2355Z" fill="#F01438"/>
<path d="M25.913 25.2499H36.9305C36.9291 25.2652 36.9278 25.2804 36.9266 25.2956C36.9247 25.3172 36.9229 25.3389 36.9207 25.3604H47.929C47.879 25.8427 47.802 26.3168 47.7008 26.7819H36.6933L36.6867 26.8115L36.6783 26.847L36.6754 26.8589L36.6675 26.8925H25.6501L25.6447 26.915L25.639 26.9378L25.6349 26.9537L25.6293 26.9769H22.399C22.3636 26.8259 22.3286 26.6749 22.2986 26.5219H11.2693C11.2648 26.4992 11.2603 26.4766 11.2557 26.454C11.2472 26.4118 11.2387 26.3694 11.231 26.3269H0.20721C0.176683 26.1576 0.150105 25.9869 0.126202 25.8154H11.1499C11.1439 25.7718 11.1387 25.728 11.1334 25.6842L11.1257 25.6204H22.1539C22.1352 25.4697 22.1213 25.3176 22.108 25.1654H25.9195C25.9184 25.1782 25.9175 25.191 25.9166 25.204C25.9155 25.2193 25.9143 25.2347 25.913 25.2499Z" fill="#F01438"/>
<path d="M29.4087 35.7181L29.4371 35.7322L29.4535 35.7404L29.488 35.7575L29.5128 35.7695C31.1862 36.558 33.0547 36.9995 35.0263 36.9995C37.0409 36.9995 38.9484 36.5394 40.6495 35.7181H29.4087Z" fill="#F01438"/>
<path d="M36.9671 23.2247L36.9689 23.2499C36.9697 23.2628 36.9705 23.2757 36.9712 23.2886H47.9805C47.9932 23.524 48 23.7608 48 23.9994C48 24.238 47.9931 24.4748 47.9805 24.7102H36.9712C36.9701 24.7315 36.9686 24.7527 36.9672 24.7739C36.9661 24.7894 36.965 24.805 36.9641 24.8207H25.9468C25.9458 24.836 25.9446 24.8514 25.9433 24.8666C25.9422 24.8794 25.941 24.8923 25.9402 24.9052H22.0881C22.0779 24.754 22.0678 24.6027 22.0627 24.4502H11.0337L11.0312 24.3854C11.0296 24.342 11.0279 24.2987 11.027 24.2552H0.00321894C0.00158109 24.17 0 24.0849 0 23.9994C0 23.9139 0.00158109 23.8288 0.00321894 23.7436H11.027C11.0279 23.7001 11.0296 23.6567 11.0312 23.6134L11.0337 23.5486H22.0626C22.0678 23.3961 22.0778 23.2448 22.0881 23.0936H25.9402C25.941 23.1065 25.9422 23.1192 25.9433 23.132C25.9446 23.1474 25.9458 23.1627 25.9468 23.1781H36.9641C36.965 23.1937 36.9661 23.2092 36.9671 23.2247Z" fill="#F01438"/>
<path d="M36.5635 27.3216H25.5463C25.5504 27.3063 25.5539 27.291 25.5576 27.2756L25.5618 27.2582L25.5671 27.237H22.464C22.5031 27.3895 22.5426 27.5418 22.587 27.6921H11.5575L11.5765 27.7571C11.5891 27.8006 11.6017 27.844 11.6151 27.887H0.591346C0.645144 28.0592 0.702744 28.2297 0.763418 28.3986H11.7872C11.8025 28.4413 11.8188 28.4835 11.8349 28.5257L11.8608 28.5937H22.8895C22.9474 28.7472 23.0106 28.8979 23.074 29.0486H24.9574C24.9629 29.0355 24.9687 29.0225 24.9744 29.0095C24.9811 28.9945 24.9877 28.9793 24.994 28.9642H36.0108C36.0171 28.9489 36.0235 28.9336 36.0299 28.9185C36.039 28.8969 36.048 28.8754 36.0568 28.8536H47.0658C47.2512 28.3923 47.4108 27.9179 47.5432 27.4321H36.5347C36.5406 27.4104 36.5462 27.3886 36.5518 27.3668L36.5635 27.3216Z" fill="#F01438"/>
<path d="M29.2916 35.8713C27.6756 36.5957 25.8857 37 24.001 37C22.1162 37 20.3263 36.5957 18.7103 35.8713H29.2916Z" fill="#F01438"/>
<path d="M32.8311 33.5362H26.224L26.2617 33.5714L26.3037 33.6109C26.3716 33.6746 26.4394 33.7382 26.5095 33.7995H21.4844C21.4683 33.8136 21.4523 33.8278 21.4363 33.842C21.4119 33.8637 21.3873 33.8855 21.3625 33.9067H15.6042L15.6487 33.9448L15.6742 33.9669C15.727 34.0123 15.7798 34.0578 15.8339 34.1017H4.8101C5.02843 34.2792 5.25227 34.45 5.48205 34.6132H16.5058C16.5774 34.6641 16.6505 34.7127 16.7236 34.7614L16.7937 34.8083H20.1726C20.139 34.8308 20.1048 34.8525 20.0707 34.8743C20.0492 34.8879 20.0276 34.9017 20.0062 34.9155H27.9857C28.125 35.006 28.2667 35.0933 28.4095 35.1787H30.6403L30.679 35.1557C30.7276 35.1268 30.7762 35.0979 30.8242 35.0682H41.8346C42.5078 34.6517 43.1402 34.1756 43.7243 33.6467H32.7133C32.7369 33.6254 32.76 33.6034 32.7831 33.5815C32.799 33.5664 32.815 33.5511 32.8311 33.5362Z" fill="#F01438"/>
<path d="M24.8088 29.3932H35.826C35.8192 29.4084 35.8125 29.4235 35.8058 29.4386C35.7961 29.4604 35.7865 29.4822 35.7765 29.5038H46.784C46.5545 29.9952 46.2954 30.4697 46.0087 30.9253H34.9995C34.9858 30.9471 34.9716 30.9686 34.9574 30.9901C34.9476 31.0052 34.9373 31.0206 34.9275 31.0357H24.1246C24.1093 31.0121 24.0938 30.9887 24.0782 30.9652C24.0527 30.9265 24.027 30.8878 24.0025 30.8484C23.9982 30.8481 23.9945 30.8485 23.9903 30.8484L23.9957 30.84C23.9598 30.782 23.9244 30.7238 23.8894 30.6653H12.8607C12.852 30.6508 12.8434 30.6363 12.8346 30.6219C12.8302 30.6146 12.8258 30.6074 12.8214 30.6001C12.7954 30.5572 12.7691 30.5139 12.744 30.4703H1.72024C1.62383 30.3022 1.53138 30.1315 1.44231 29.9588H12.4661C12.4433 29.9146 12.4214 29.8698 12.3996 29.825L12.3696 29.7637H23.3985C23.3244 29.6141 23.2556 29.4615 23.1873 29.3088H24.8454C24.8397 29.3216 24.8341 29.3345 24.8287 29.3475L24.8203 29.3672C24.8165 29.376 24.8127 29.3846 24.8088 29.3932Z" fill="#F01438"/>
<path d="M8.41226 36.1729C8.96598 36.3812 9.53755 36.5528 10.1243 36.6845H15.8154C16.403 36.5526 16.9757 36.3817 17.5304 36.1729H8.41226Z" fill="#F01438"/>
<path d="M24.411 31.4646H34.6361C34.6253 31.4799 34.6148 31.4953 34.6042 31.5107C34.5894 31.5323 34.5745 31.5538 34.5593 31.5751H45.5689C45.2093 32.0768 44.815 32.5519 44.3894 32.9966H33.3789C33.358 33.0185 33.3366 33.0397 33.3152 33.061C33.2998 33.0763 33.2844 33.0916 33.2692 33.1071H25.7803C25.754 33.0803 25.7275 33.0536 25.7011 33.0271C25.6411 32.9667 25.5811 32.9063 25.5232 32.8439H22.4662C22.4799 32.8292 22.4937 32.8147 22.5074 32.8002C22.5274 32.7791 22.5473 32.7581 22.5668 32.7367H14.3938C14.3729 32.7135 14.3518 32.6906 14.3306 32.6676C14.2922 32.626 14.2537 32.5843 14.2165 32.5416H3.19276C3.04746 32.3747 2.90602 32.2043 2.76923 32.03H13.793C13.7589 31.9866 13.7258 31.9423 13.6927 31.8979C13.677 31.877 13.6614 31.8559 13.6456 31.8351H23.3146C23.3302 31.8144 23.3452 31.7932 23.3601 31.7719C23.3722 31.7546 23.3843 31.7372 23.3969 31.7202L23.399 31.7239L23.4013 31.7278H24.598C24.5496 31.6624 24.5029 31.5957 24.4562 31.5291C24.4412 31.5076 24.4261 31.4861 24.411 31.4646Z" fill="#F01438"/>
</svg>
