<?xml version="1.0" encoding="UTF-8" standalone="no"?>
<svg
   width="48"
   height="48"
   viewBox="0 0 48 48"
   fill="none"
   version="1.1"
   id="svg2"
   sodipodi:docname="OpenBMB单logo.svg"
   inkscape:version="1.4.2 (f4327f4, 2025-05-13)"
   xmlns:inkscape="http://www.inkscape.org/namespaces/inkscape"
   xmlns:sodipodi="http://sodipodi.sourceforge.net/DTD/sodipodi-0.dtd"
   xmlns="http://www.w3.org/2000/svg"
   xmlns:svg="http://www.w3.org/2000/svg">
  <defs
     id="defs2" />
  <sodipodi:namedview
     id="namedview2"
     pagecolor="#ffffff"
     bordercolor="#000000"
     borderopacity="0.25"
     inkscape:showpageshadow="2"
     inkscape:pageopacity="0.0"
     inkscape:pagecheckerboard="0"
     inkscape:deskcolor="#d1d1d1"
     inkscape:zoom="12.15625"
     inkscape:cx="39.979434"
     inkscape:cy="28.915167"
     inkscape:window-width="3440"
     inkscape:window-height="1369"
     inkscape:window-x="1912"
     inkscape:window-y="-8"
     inkscape:window-maximized="1"
     inkscape:current-layer="svg2" />
  <path
     fill-rule="evenodd"
     clip-rule="evenodd"
     d="m 4.0164127,4.3498919 c 0,-0.1514216 0.12389,-0.2753116 0.2753116,-0.2753116 H 18.580389 c 0.151421,0 0.275311,0.12389 0.275311,0.2753116 v 5.8999241 c 0,0.151421 -0.12389,0.275312 -0.275311,0.275312 H 4.2917243 c -0.1514216,0 -0.2753116,-0.123891 -0.2753116,-0.275312 z m 0,16.7747261 c 0,-0.151421 0.12389,-0.275311 0.2753116,-0.275311 H 18.580389 c 0.151421,0 0.275311,0.12389 0.275311,0.275311 v 5.899925 c 0,0.15142 -0.12389,0.27531 -0.275311,0.27531 H 4.2917243 c -0.1514216,0 -0.2753116,-0.12389 -0.2753116,-0.27531 z m 0.2753116,16.499415 c -0.1514216,0 -0.2753116,0.123891 -0.2753116,0.275311 v 5.899925 c 0,0.151421 0.12389,0.275311 0.2753116,0.275311 H 18.580389 c 0.151421,0 0.275311,-0.12389 0.275311,-0.275311 v -5.899925 c 0,-0.15142 -0.12389,-0.275311 -0.275311,-0.275311 z M 12.4024,12.735878 c 0,-0.151421 0.12389,-0.275311 0.275311,-0.275311 h 14.288664 c 0.151421,0 0.275311,0.12389 0.275311,0.275311 v 5.899924 c 0,0.151421 -0.12389,0.275312 -0.275311,0.275312 H 12.677711 c -0.151421,0 -0.275311,-0.123891 -0.275311,-0.275312 z m 0.275311,16.499415 c -0.151421,0 -0.275311,0.12389 -0.275311,0.275311 v 5.899925 c 0,0.151421 0.12389,0.275311 0.275311,0.275311 h 14.288664 c 0.151421,0 0.275311,-0.12389 0.275311,-0.275311 v -5.899925 c 0,-0.151421 -0.12389,-0.275311 -0.275311,-0.275311 z"
     fill="#315efe"
     id="path1"
     style="stroke-width:0.275312" />
  <path
     fill-rule="evenodd"
     clip-rule="evenodd"
     d="m 20.791057,4.3498919 c 0,-0.1514216 0.12389,-0.2753116 0.275311,-0.2753116 h 14.288746 c 0.151422,0 0.275312,0.12389 0.275312,0.2753116 v 5.8999241 c 0,0.151421 -0.12389,0.275312 -0.275312,0.275312 H 21.066368 c -0.151421,0 -0.275311,-0.123891 -0.275311,-0.275312 z m 0,16.7747261 c 0,-0.151421 0.12389,-0.275311 0.275311,-0.275311 h 14.288746 c 0.151422,0 0.275312,0.12389 0.275312,0.275311 v 5.899925 c 0,0.15142 -0.12389,0.27531 -0.275312,0.27531 H 21.066368 c -0.151421,0 -0.275311,-0.12389 -0.275311,-0.27531 z m 0.275311,16.499415 c -0.151421,0 -0.275311,0.123891 -0.275311,0.275311 v 5.899925 c 0,0.151421 0.12389,0.275311 0.275311,0.275311 h 14.288746 c 0.151422,0 0.275312,-0.12389 0.275312,-0.275311 v -5.899925 c 0,-0.15142 -0.12389,-0.275311 -0.275312,-0.275311 z m 8.110676,-24.888155 c 0,-0.151421 0.12389,-0.275311 0.275311,-0.275311 h 14.288746 c 0.151422,0 0.275312,0.12389 0.275312,0.275311 v 5.899924 c 0,0.151421 -0.12389,0.275312 -0.275312,0.275312 H 29.452355 c -0.151421,0 -0.275311,-0.123891 -0.275311,-0.275312 z m 0.275311,16.499415 c -0.151421,0 -0.275311,0.12389 -0.275311,0.275311 v 5.899925 c 0,0.151421 0.12389,0.275311 0.275311,0.275311 h 14.288746 c 0.151422,0 0.275312,-0.12389 0.275312,-0.275311 v -5.899925 c 0,-0.151421 -0.12389,-0.275311 -0.275312,-0.275311 z"
     fill="#00d3ed"
     id="path2"
     style="stroke-width:0.275312" />
</svg>
