<svg width="48" height="48" viewBox="0 0 48 48" fill="none" xmlns="http://www.w3.org/2000/svg">
<g clip-path="url(#clip0_7786_6014)">
<rect width="48" height="48" fill="black"/>
<path d="M70 10.0229C62.3843 10.6384 32.4553 14.317 11.7013 34.9999H4L4.86047 34.1497C9.20339 29.9903 28.4206 12.3617 70 10V10.0229Z" fill="white"/>
<path d="M43.9359 34.9999H37.9007L26.0067 26.4174C27.1031 25.7342 28.206 25.0834 29.312 24.4636L43.9359 34.9999Z" fill="white"/>
<path d="M34.2864 35H28.2528L26.4238 33.6802H16.2044C16.9238 33.0469 17.6522 32.4321 18.3881 31.8354H23.8623L21.0292 29.7927C22.0416 29.0458 23.0653 28.3304 24.0979 27.6451L34.2864 35Z" fill="white"/>
<path d="M12.3275 19.1746L16.9799 22.5266C15.8221 23.2025 14.7384 23.8716 13.7267 24.5261L6.29921 19.1717L12.3275 19.1746Z" fill="white"/>
</g>
<defs>
<clipPath id="clip0_7786_6014">
<rect width="48" height="48" fill="white"/>
</clipPath>
</defs>
</svg>
