<svg width="48" height="48" viewBox="0 0 48 48" fill="none" xmlns="http://www.w3.org/2000/svg">
<path d="M17.3564 15.1235H4.5V19.5466H8.08747V32.8765H13.7689V19.5466H17.3564V15.1235Z" fill="#6400FF"/>
<path d="M24.8698 15.1235H19.1884V32.8765H24.8698V15.1235Z" fill="#6400FF"/>
<path d="M34.2312 15.1235H28.5498V32.8765H34.2312V15.1235Z" fill="#6400FF"/>
<path d="M19.1884 48V45.8873C25.2855 45.8873 30.5512 43.7289 34.8624 39.4731C39.1735 35.2172 41.3598 30.019 41.3598 24C41.3598 17.981 39.1735 12.7828 34.8624 8.52692C30.5512 4.27106 25.2701 2.11273 19.1884 2.11273V0C25.8552 0 31.6444 2.37112 36.3713 7.03737C41.0981 11.7036 43.5 17.4186 43.5 24C43.5 30.5814 41.0981 36.3116 36.3713 40.9626C31.6444 45.6137 25.8706 48 19.1884 48Z" fill="#6400FF"/>
</svg>
